<?xml version="1.0" encoding="utf-8"?>
<!-- Generator: Adobe Illustrator 28.0.0, SVG Export Plug-In . SVG Version: 6.00 Build 0)  -->
<svg version="1.1" id="Layer_1" xmlns="http://www.w3.org/2000/svg" xmlns:xlink="http://www.w3.org/1999/xlink" x="0px" y="0px"
	 width="375px" height="375px" viewBox="0 0 375 375" enable-background="new 0 0 375 375" xml:space="preserve">
<g>
	<path fill="#748E65" d="M173.344,57.447c-2.637,0.545-5.282,1.056-7.91,1.643c-7.568,1.691-15.103,3.531-22.89,3.993
		c-8.561,0.508-15.939-1.6-21.547-8.647c-2.674-3.36-5.742-6.466-8.952-9.327c-9.058-8.074-9.586-18.303-0.841-26.721
		c6.853-6.597,15.082-10.496,24.757-10.627c6.771-0.092,12.242,2.571,16.127,8.294c0.789,1.162,1.843,2.254,3.007,3.031
		c2.744,1.833,4.749,4.266,6.551,6.97c3.224,4.84,6.539,9.619,9.838,14.408c0.564,0.819,1.21,1.588,1.869,2.336
		c4.044,4.582,4.375,3.689,8.013,2.182c1.344-0.556,3.006-0.335,4.521-0.488c0.813-0.082,1.665-0.076,2.426-0.33
		c5.923-1.983,10.626-5.87,15.223-9.901c1.833-1.608,3.684-3.206,5.392-4.942c6.677-6.786,15.069-10.148,24.109-12.27
		c5.426-1.273,10.853-2.143,16.446-1.054c8.676,1.689,14.647,6.808,18.457,14.557c1.75,3.559,1.071,7.395,0.388,11.111
		c-0.621,3.376-1.418,6.72-2.174,10.07c-1.773,7.855-6.048,11.562-14.083,12.509c-6.129,0.723-12.195,0.174-18.2-0.866
		c-12.058-2.088-24.075-4.407-36.113-6.61c-3.122-0.571-6.247-0.653-9.514,0.177c0.23,0.283,0.323,0.498,0.486,0.584
		c5.563,2.944,9.688,7.508,13.729,12.168c0.617,0.711,1.275,1.387,1.904,2.088c5.772,6.422,12.884,8.597,21.335,6.99
		c6.043-1.149,11.715-3.298,17.303-5.761c6.441-2.839,12.871-5.709,19.882-6.921c21.415-3.703,34.998,9.58,39.907,23.391
		c2.164,6.088,1.884,12.047-1.123,17.87c-1.727,3.344-3.375,6.746-4.778,10.235c-2.932,7.291-2.19,14.414,1.355,21.352
		c2.064,4.04,5.484,5.786,9.79,6.538c6.099,1.064,12.172,2.311,18.207,3.693c2.019,0.462,3.943,1.471,5.817,2.415
		c13.155,6.631,15.256,21.951,8.621,32.269c-2.255,3.507-5.336,6.488-8.082,9.673c-3.259,3.778-5.734,7.937-4.815,13.109
		c0.504,2.84,1.729,5.569,2.784,8.289c1.517,3.911,3.554,7.661,4.674,11.674c1.361,4.877,0.591,9.955-0.399,14.839
		c-1.108,5.467-2.67,10.843-4.085,16.246c-0.206,0.785-0.588,1.574-1.073,2.225c-1.025,1.378-2.561,1.085-3.213-0.506
		c-0.464-1.133-0.737-2.745-1.593-3.192c-0.72-0.377-2.17,0.584-3.274,1.012c-1.609,0.624-2.556-0.062-2.118-1.825
		c0.613-2.465,1.408-4.899,2.307-7.277c2.814-7.439,4.871-15.071,6.083-22.929c0.211-1.366,0.329-2.751,0.414-4.132
		c0.116-1.903-0.555-3.516-1.686-5.072c-2.016-2.772-4.082-5.549-5.721-8.546c-3.63-6.639-3.273-13.327,0.631-19.756
		c1.433-2.359,3.198-4.517,4.834-6.751c0.687-0.938,1.451-1.821,2.147-2.753c5.823-7.793,4.705-16.375-3.349-21.927
		c-3.408-2.349-7.445-3.869-11.334-5.416c-5.138-2.044-10.398-3.785-15.631-5.583c-8.184-2.811-11.359-9.245-12.336-17.157
		c-1.194-9.679,1.668-18.395,6.713-26.528c1.372-2.213,2.865-4.363,4.073-6.662c2.885-5.488,1.874-9.927-2.943-13.825
		c-4.676-3.784-10.059-4.303-15.734-3.409c-6.732,1.06-13.014,3.586-19.317,6.028c-7.748,3.002-15.44,6.155-23.594,7.972
		c-10.857,2.42-21.158,1.299-30.693-4.708c-5.977-3.767-10.099-9.222-13.565-15.251c-1.325-2.305-2.639-4.625-4.124-6.826
		c-1.604-2.377-4.461-3.364-7.167-2.557c-0.473,0.141-0.876,0.9-1.094,1.459c-2.446,6.261-5.755,11.965-10.49,16.804
		c-5.01,5.12-11.164,7.687-18.217,7.528c-6.018-0.136-12.057-0.675-18.022-1.501c-11.988-1.659-23.968-2.171-35.904-0.022
		c-3.362,0.606-6.545,2.306-9.75,3.646c-1.661,0.694-2.492,2.081-1.86,3.925c0.695,2.025,1.276,4.149,2.349,5.969
		c1.995,3.384,4.345,6.557,6.485,9.858c2.303,3.554,4.309,7.271,4.947,11.524c1.106,7.366-1.376,13.295-7.431,17.656
		c-6.823,4.914-14.438,6.912-22.85,6.606c-4.06-0.148-8.202,0.283-12.216,0.977c-5.721,0.99-9.808,4.47-11.747,9.928
		c-1.249,3.516-2.006,7.251-2.57,10.951c-0.396,2.598,0.828,5.027,2.391,7.092c2.205,2.914,4.552,5.722,6.885,8.536
		c5.409,6.522,8.496,13.852,7.858,22.473c-0.473,6.386-2.443,12.36-5.088,18.147c-1.15,2.516-2.291,5.045-3.253,7.637
		c-1.213,3.268-0.545,6.381,1.453,9.136c1.163,1.603,2.614,2.999,3.953,4.472c0.558,0.614,1.331,1.099,1.701,1.802
		c0.458,0.873,0.599,1.912,0.878,2.88c-0.845,0.238-1.678,0.551-2.538,0.69c-0.701,0.113-1.441-0.036-2.156,0.024
		c-2.864,0.238-4.026,2.136-3.148,4.826c0.319,0.977,0.23,2.087,0.328,3.137c-1.153-0.098-2.479,0.142-3.433-0.346
		c-10.94-5.589-20.47-21.429-10.544-36.431c1.588-2.4,3.264-4.761,5.093-6.981c5.053-6.13,6.393-13.008,4.359-20.588
		c-0.903-3.367-1.967-6.692-3.003-10.022c-1.09-3.506-3.177-6.358-5.569-9.134c-6.86-7.965-8.226-17.205-4.884-26.93
		c3.31-9.633,10.374-15.363,20.404-17.26c5.076-0.96,10.057-0.297,14.868,1.512c2.955,1.111,5.846,2.393,8.787,3.542
		c1.494,0.583,3.011,1.141,4.562,1.54c4.559,1.173,6.821-0.517,7.246-5.28c0.264-2.952-0.369-5.766-1.503-8.431
		c-2.039-4.79-4.275-9.497-6.363-14.267c-2.258-5.159-4.231-10.452-3.74-16.196c0.643-7.525,3.716-13.986,9.435-19.019
		c3.604-3.171,8.21-3.957,12.708-4.95c10.292-2.273,20.471-1.255,30.662,0.807c6.412,1.297,12.908,2.144,19.483,1.815
		c9.779-0.49,17.966-4.073,23.652-12.393c0.359-0.525,0.648-1.098,0.969-1.648C173.499,57.704,173.422,57.575,173.344,57.447z
		 M198.769,47.251c0.07,0.145,0.14,0.29,0.21,0.435c1.367-0.125,2.731-0.312,4.101-0.363c4.656-0.171,9.142,0.865,13.573,2.117
		c9.813,2.773,19.615,5.57,29.897,6.005c4.523,0.192,8.984-0.001,13.178-1.95c3.206-1.489,3.972-2.911,3.246-6.349
		c-1.007-4.765-2.128-9.506-3.21-14.254c-1.4-6.145-5.263-9.532-11.502-10.271c-5.548-0.657-11.113-1.211-16.632-2.06
		c-2.958-0.455-5.364,0.33-7.535,2.156c-0.969,0.815-1.885,1.733-2.663,2.731c-5.522,7.079-11.979,13.193-19.043,18.7
		C201.137,45.124,199.974,46.214,198.769,47.251z M167.864,49.416c-0.587-0.785-0.953-1.403-1.439-1.905
		c-6.708-6.935-11.568-14.996-14.433-24.192c-0.95-3.048-2.947-4.468-5.835-4.868c-1.848-0.256-3.761-0.381-5.612-0.209
		c-7.204,0.67-13.768,3.341-19.893,7.024c-2.58,1.551-4.948,3.539-7.145,5.612c-1.707,1.611-2.656,3.911-1.737,6.239
		c1.723,4.362,4.11,8.47,8.055,11.12c2.769,1.86,5.992,3.126,9.148,4.29c1.645,0.607,3.613,0.722,5.382,0.54
		c7.215-0.74,14.406-1.715,21.614-2.533C159.806,50.099,163.66,49.807,167.864,49.416z M80.207,91.361
		c6.546-5.815,10.754-7.727,19.333-8.527c9.046-0.844,18.036,0.063,27.029,0.893c7.881,0.727,15.739,1.655,23.696,1.187
		c12.014-0.706,20.866-7.33,24.631-18.756c0.36-1.093,0.484-2.265,0.717-3.4c-0.202-0.116-0.405-0.232-0.607-0.348
		c-1.011,0.884-2.14,1.666-3.009,2.672c-2.082,2.412-4.368,4.532-7.148,6.134c-5.919,3.412-12.38,4.664-19.048,4.132
		c-6.831-0.545-13.612-1.73-20.414-2.645c-5.207-0.7-10.4-1.867-15.684-1.134c-3.944,0.547-7.861,1.32-11.763,2.124
		c-8.871,1.827-14.336,7.446-17.278,15.787C80.448,90.085,80.356,90.733,80.207,91.361z M294.595,78.676
		c-1.147-2.234-4.032-4.869-7.13-6.443c-7.656-3.89-15.771-4.55-23.93-2.441c-7.166,1.852-14.165,4.37-21.191,6.733
		c-7.433,2.5-14.891,4.664-22.865,4.381c-5.272-0.187-10.094-1.526-14.069-5.084c-2.593-2.322-4.963-4.893-7.45-7.335
		c-2.327-2.285-4.614-4.619-7.051-6.781c-0.867-0.769-2.125-1.096-3.205-1.625c-0.158,0.186-0.316,0.372-0.473,0.559
		c0.847,1.526,1.558,3.15,2.569,4.559c2.614,3.644,5.253,7.281,8.091,10.75c1.989,2.431,4.161,4.767,6.532,6.822
		c6.373,5.523,13.869,7.893,22.284,7.276c5.68-0.417,11.13-1.882,16.449-3.832c7.849-2.879,15.619-5.979,23.512-8.728
		c6.408-2.232,13.036-3.219,19.767-1.507C289.15,76.671,291.771,77.731,294.595,78.676z M54.274,247.431
		c-0.89-0.741-1.528-1.244-2.135-1.782c-3.049-2.698-5.886-5.68-5.866-9.998c0.012-2.58,0.709-5.252,1.587-7.709
		c1.189-3.327,3.015-6.422,4.275-9.728c5.366-14.077,3.716-26.944-6.889-38.163c-0.307-0.325-0.673-0.595-1.011-0.891
		c-0.124,0.076-0.247,0.152-0.371,0.227c0.235,0.885,0.405,1.795,0.718,2.652c1.028,2.808,2.169,5.575,3.157,8.397
		c3.382,9.666,2.786,18.838-3.501,27.278c-0.893,1.199-1.773,2.419-2.522,3.709c-1.555,2.675-3.314,5.284-4.461,8.132
		c-2.976,7.39,0.987,19.338,7.643,23.749c0.429,0.284,0.923,0.471,1.533,0.777C47.03,249.506,50.038,247.936,54.274,247.431z
		 M80.019,142.015c-0.026-0.177-0.052-0.354-0.078-0.531c-4.649-2.008-9.279-4.063-13.959-5.995
		c-1.471-0.607-3.056-1.025-4.629-1.286c-7.647-1.271-14.73-0.124-20.496,5.487c-7.024,6.836-9.007,20.935-4.298,29.572
		c0.298,0.547,0.701,1.036,1.055,1.552c0.333-1.534,0.339-2.936,0.333-4.339c-0.058-12.061,7.915-21.327,19.856-22.7
		c4.769-0.549,9.612-0.417,14.411-0.743C74.826,142.853,77.418,142.364,80.019,142.015z M262.642,54.1
		c-0.659,0.218-0.987,0.275-1.264,0.426c-5.326,2.887-11.058,3.242-16.946,2.828c-6.565-0.462-12.842-2.242-19.167-3.881
		c-6.096-1.58-12.214-3.124-18.393-4.319c-3.828-0.741-7.745-0.299-11.432,1.172c-1.562,0.623-3.076,1.407-4.054,3.151
		c1.114,0,2.029-0.002,2.944,0.001c1.324,0.004,2.696-0.212,3.963,0.059c5.133,1.1,10.304,2.112,15.332,3.594
		c11.323,3.338,22.742,5.957,34.632,5.065c3.193-0.239,6.404-1.172,9.443-2.249C260.146,59.079,261.828,57.08,262.642,54.1z
		 M324.308,207.708c0.053-0.716,0.115-0.938,0.077-1.143c-0.789-4.299,0.69-7.995,3.199-11.32c1.697-2.248,3.751-4.226,5.456-6.47
		c2.231-2.937,4.744-5.793,6.309-9.078c4.178-8.767,1.902-18.69-5.346-23.909c-6.428-4.628-14.022-6.21-21.654-7.524
		c0.457,0.331,0.963,0.52,1.477,0.686c5.145,1.666,10.005,3.908,14.32,7.211c4.795,3.67,7.279,8.424,6.502,14.565
		c-0.477,3.766-2.233,7.049-4.249,10.19c-1.914,2.982-3.947,5.888-5.823,8.893c-2.089,3.347-2.968,7.035-2.501,10.966
		C322.345,203.041,322.521,205.379,324.308,207.708z M173.464,55.439c0.056-2.849-0.569-3.833-2.438-3.723
		c-4.637,0.272-9.292,0.428-13.901,0.963c-6.587,0.765-13.134,1.864-19.709,2.737c-1.85,0.246-3.855,0.642-5.585,0.189
		c-3.009-0.787-5.863-2.172-8.774-3.326c-0.557-0.221-1.078-0.532-1.615-0.801c-0.11,0.157-0.22,0.315-0.331,0.472
		c1.197,1.194,2.332,2.458,3.601,3.571c6.026,5.284,13.314,6.103,20.782,5.174c6.57-0.818,13.048-2.382,19.565-3.624
		C167.872,56.535,170.681,55.98,173.464,55.439z M82.005,94.021c-1.932,2.671-2.588,5.259-1.877,7.919
		c0.853,3.192,2.018,6.315,3.247,9.389c1.726,4.315,3.822,8.489,5.414,12.85c1.493,4.089,2.205,8.363,0.866,12.712
		c-0.05,0.161,0.048,0.367,0.157,1.068c1.045-1.317,1.897-2.236,2.572-3.27c4.476-6.848,4.405-13.768,0.483-20.873
		C89.294,107.342,84.311,101.662,82.005,94.021z M146.541,15.265c-1.931-2.254-4.179-3.215-6.582-3.534
		c-11.157-1.481-20.788,1.928-28.838,9.651c-3.204,3.074-4.888,6.999-4.235,11.582c0.545,3.824,2.657,6.867,5.187,9.652
		c0.213,0.235,0.516,0.389,1.074,0.798c-0.912-1.621-1.636-2.861-2.316-4.125c-2.08-3.865-1.59-7.475,1.202-10.78
		c0.816-0.966,1.722-1.907,2.745-2.637C124.15,19.188,134.115,14.201,146.541,15.265z M295.656,140.265
		c-0.425-1.071-0.835-2.148-1.278-3.211c-1.567-3.761-2.076-7.651-1.657-11.71c0.513-4.965,2.557-9.369,4.767-13.728
		c2.13-4.2,4.407-8.345,4.801-13.18c0.217-2.665-0.604-5.031-1.721-7.211c-1.509,2.867-2.785,5.747-4.457,8.375
		c-3.532,5.549-5.94,11.507-7.158,17.948c-0.992,5.243-1.107,10.466,0.81,15.56C290.895,136.116,292.688,138.641,295.656,140.265z
		 M264.285,44.759c0.228-0.011,0.456-0.021,0.684-0.032c0.353-2.056,0.716-4.11,1.056-6.169c0.61-3.695-0.004-7.158-1.945-10.386
		c-1.716-2.854-3.922-5.225-6.771-6.96c-6.208-3.779-12.999-4.462-20.042-3.665c-1.14,0.129-2.254,0.485-3.38,0.737
		c0.016,0.144,0.031,0.287,0.047,0.431c0.528,0.111,1.051,0.262,1.585,0.328c3.626,0.45,7.262,0.825,10.879,1.331
		c8.807,1.231,13.006,5.045,15.153,13.697c0.493,1.988,0.868,4.006,1.368,5.992C263.318,41.642,263.826,43.194,264.285,44.759z
		 M189.918,47.771c0.099,0.147,0.198,0.294,0.297,0.441c1.116-0.348,2.32-0.532,3.329-1.076c2.334-1.258,4.658-2.568,6.836-4.075
		c9.262-6.407,16.958-14.54,24.297-22.673c-0.721,0.325-1.875,0.636-2.78,1.291c-4.119,2.978-8.29,5.904-12.214,9.128
		c-5.67,4.659-10.489,10.368-17.186,13.758c-0.666,0.337-1.237,0.946-1.722,1.535C190.387,46.573,190.197,47.208,189.918,47.771z
		 M330.527,223.452c0.356,10.653-3.617,20.202-7.59,29.863c2.447-0.606,4.437,0.02,6.416,1.548
		C332.129,244.269,334.223,234.01,330.527,223.452z M155.193,23.202c-0.162,0.088-0.324,0.176-0.486,0.264
		c0.302,1.09,0.51,2.217,0.923,3.263c2.579,6.546,6.153,12.509,10.775,17.813c1.077,1.236,2.353,2.36,3.724,3.248
		c0.626,0.406,1.705,0.113,2.579,0.138c-0.153-0.802-0.068-1.779-0.505-2.37c-1.112-1.505-2.584-2.746-3.686-4.258
		c-3.13-4.292-6.114-8.69-9.225-12.997C158.016,26.538,156.565,24.899,155.193,23.202z M183.363,59.319
		c0.191,0.038,0.382,0.076,0.574,0.114c1.122-1.746,2.317-3.451,3.344-5.252c0.891-1.563,0.673-3.059-0.757-4.148
		c-1.06-0.807-2.368-1.459-3.663-1.755c-2.866-0.653-5.077,0.628-5.787,3.058c-0.819,2.803,0.74,6.839,3.126,7.864
		c-0.042-0.642-0.182-1.249-0.091-1.819c0.104-0.654,0.414-1.274,0.634-1.909c0.535,0.484,1.191,0.889,1.575,1.473
		C182.785,57.658,183.024,58.521,183.363,59.319z"/>
	<path fill="#748E65" d="M75.213,309.79c-0.518-2.954-0.998-5.433-1.371-7.929c-0.179-1.198-0.252-2.43-0.194-3.638
		c0.066-1.37,0.844-1.783,2.017-1.056c0.83,0.515,1.643,1.179,2.215,1.959c0.978,1.334,1.833,2.772,2.613,4.235
		c5.068,9.51,11.629,17.873,20.116,24.48c9.018,7.021,19.527,10.801,30.803,12.407c1.738,0.248,3.554,0.181,5.311,0.014
		c4.4-0.417,8.482,0.558,12.364,2.537c2.714,1.384,5.483,2.689,8.08,4.271c9.342,5.689,19.57,8.496,30.353,9.481
		c12.049,1.1,23.913,0.076,35.481-3.591c7.143-2.264,13.792-5.511,19.441-10.54c1.231-1.096,2.423-2.307,3.355-3.656
		c5.148-7.451,12.158-12.313,20.654-15.194c2.518-0.854,5.031-1.729,7.512-2.683c10.355-3.985,18.288-11.135,25.187-19.554
		c2.383-2.908,4.453-6.072,6.659-9.124c0.357-0.494,0.653-1.032,1.019-1.518c0.626-0.834,1.302-2.057,2.446-1.454
		c0.632,0.333,1.007,1.603,1.068,2.481c0.15,2.142,0.049,4.301,0.049,6.759c1.603-0.704,2.907-1.43,4.303-1.839
		c1.036-0.303,2.192-0.193,3.295-0.267c-0.21,1.039-0.134,2.271-0.68,3.085c-2.432,3.626-4.799,7.342-7.638,10.639
		c-5.586,6.487-12.09,12.007-18.988,17.09c-5.128,3.779-11.033,5.275-17.1,6.453c-5.056,0.982-10.116,1.947-15.161,2.982
		c-1.351,0.277-2.646,0.812-3.981,1.181c-4.582,1.267-7.792,3.996-10.03,8.279c-3.1,5.932-6.76,11.598-13.155,14.523
		c-3.71,1.697-7.602,3.064-11.517,4.224c-6.035,1.788-12.264,2.384-18.561,2.411c-8.098,0.035-16.16-0.11-24.17-1.594
		c-12.246-2.269-22.832-7.568-30.943-17.101c-3.956-4.649-8.665-5.678-14.287-4.799c-4.647,0.726-9.297,1.585-13.979,1.899
		c-10.963,0.735-20.384-3.448-28.933-9.878c-6.318-4.752-11.039-11.018-15.756-17.256c-2.071-2.739-4.091-5.521-6.021-8.361
		c-0.678-0.997-1.768-2.321-0.691-3.397c0.423-0.423,2.082,0.224,3.098,0.6C71.291,308.014,73.023,308.843,75.213,309.79z
		 M149.435,346.15c-0.126,0.105-0.251,0.21-0.377,0.316c0.494,0.635,0.913,1.349,1.493,1.892
		c7.053,6.609,14.957,11.771,24.411,14.296c5.816,1.553,11.758,2.064,17.742,2.426c9.198,0.555,18.28-0.019,27.161-2.565
		c6.71-1.923,12.828-4.951,17.426-10.422c1.105-1.315,1.98-2.823,2.962-4.243c-0.142-0.139-0.284-0.279-0.425-0.418
		c-0.821,0.507-1.718,0.922-2.449,1.536c-5.572,4.677-12.233,6.91-19.185,8.254c-11.33,2.189-22.78,2.323-34.251,1.297
		c-11.062-0.989-21.337-4.356-30.783-10.224C151.942,347.539,150.677,346.863,149.435,346.15z M307.487,297.422
		c-0.842,0.936-1.574,1.648-2.19,2.449c-3.718,4.834-7.4,9.691-12.05,13.711c-6.978,6.031-15.13,9.74-23.885,12.343
		c-4.838,1.438-9.628,3.067-13.794,6.044c-1.364,0.975-2.58,2.158-4.169,3.505c0.672,0.042,0.834,0.09,0.976,0.056
		c6.725-1.621,13.446-3.261,20.173-4.873c4.953-1.187,10.002-2.093,14.399-4.897c7.235-4.615,13.777-10.069,19.525-16.442
		c1.873-2.077,3.54-4.339,5.112-6.283c-1.322-0.597-2.764-0.806-3.338-1.624C307.604,300.492,307.747,299.023,307.487,297.422z
		 M77.369,304.996c0.197,1.245,0.438,2.425,0.56,3.618c0.244,2.383-0.779,3.353-3.118,2.912c-1.281-0.242-2.529-0.657-4.149-1.089
		c0.452,0.748,0.666,1.249,1.006,1.64c4.467,5.138,8.691,10.521,13.495,15.325c7.255,7.256,16.058,11.943,26.245,13.748
		c2.732,0.484,5.52,0.65,8.488,0.984c-0.205-0.511-0.221-0.669-0.286-0.693c-0.414-0.155-0.83-0.319-1.261-0.408
		c-3.953-0.82-7.602-2.385-11.025-4.495c-6.438-3.969-11.887-9.08-16.688-14.86C86.148,316.274,81.881,310.688,77.369,304.996z"/>
	<path fill="#748E65" d="M163.401,218.107c-1.563,1.013-2.986,1.955-4.432,2.859c-0.418,0.262-0.887,0.469-1.36,0.614
		c-1.451,0.445-2.987,0.874-4.231-0.336c-1.218-1.184-0.807-2.647-0.295-4.045c0.109-0.298,0.192-0.606,0.035-1.154
		c-0.562,0.464-1.077,1.007-1.694,1.378c-2.498,1.505-4.889,3.318-7.576,4.348c-4.442,1.703-8.749-1.49-8.076-6.261
		c0.038-0.267,0.005-0.544,0.005-1.214c-0.659,0.546-1.075,0.918-1.518,1.253c-2.25,1.699-4.408,3.549-6.8,5.018
		c-1.303,0.801-2.985,1.207-4.533,1.334c-2.241,0.184-3.834-1.786-3.18-3.937c0.471-1.548,1.287-3.086,2.293-4.355
		c1.82-2.296,3.963-4.333,5.828-6.596c0.582-0.706,1.245-2.252,0.935-2.616c-0.91-1.066-2.153-0.199-2.898,0.504
		c-3.054,2.882-6.054,5.828-8.941,8.876c-1.787,1.886-3.334,3.999-4.99,6.009c-0.141,0.171-0.294,0.332-0.429,0.508
		c-0.815,1.056-1.946,1.834-3.13,1.099c-0.727-0.451-0.966-1.686-1.473-2.663c-0.585,0.394-1.429,1.12-2.399,1.578
		c-1.381,0.652-2.818,1.381-4.299,1.586c-2.421,0.335-3.615-1.113-3.258-3.524c0.055-0.37,0.145-0.735,0.3-1.507
		c-1.165,0.943-1.953,1.801-2.923,2.32c-1.727,0.922-3.498,2.046-5.37,2.349c-2.975,0.481-4.9-1.94-4.271-4.917
		c0.181-0.856,0.474-1.735,0.919-2.482c3.318-5.572,7.759-9.935,13.824-12.452c0.955-0.396,2.02-0.587,3.054-0.717
		c1.465-0.184,2.797,0.099,3.477,1.846c0.401-0.421,0.671-0.737,0.975-1.018c0.996-0.923,2.472-1.037,3.318-0.188
		c0.969,0.972,0.765,2.128-0.025,2.995c-1.563,1.716-3.308,3.265-4.928,4.932c-1.233,1.269-2.456,2.558-3.557,3.94
		c-0.8,1.004-1.498,2.227-0.542,3.487c1.026,1.354,2.463,1.12,3.788,0.532c3.47-1.538,6.309-3.919,8.507-6.983
		c1.58-2.202,2.93-4.569,4.384-6.861c0.326-0.514,0.62-1.057,1-1.529c0.945-1.175,2.527-1.561,3.354-0.764
		c1.062,1.024,0.691,2.188-0.073,3.143c-0.965,1.206-2.111,2.265-3.151,3.413c-1.968,2.174-3.941,4.344-5.855,6.565
		c-0.467,0.542-0.714,1.272-1.062,1.916c0.15,0.124,0.3,0.247,0.45,0.371c0.723-0.678,1.487-1.316,2.161-2.039
		c3.546-3.809,7.01-7.695,10.636-11.425c1.009-1.038,2.387-1.895,3.756-2.341c0.934-0.304,2.302-0.023,3.198,0.486
		c1.161,0.66,1.1,2.095,0.562,3.15c-0.925,1.812-2.022,3.551-3.188,5.222c-1.361,1.951-2.942,3.75-4.277,5.717
		c-0.4,0.59-0.657,1.918-0.338,2.212c0.518,0.477,1.674,0.707,2.37,0.473c4.082-1.368,7.601-3.636,9.869-7.395
		c2.198-3.643,4.912-6.752,8.739-8.64c1.529-0.754,3.356-1.124,5.072-1.217c1.958-0.106,3.249,1.433,3.289,3.427
		c0.052,2.586-1.2,4.574-3.106,6.156c-1.074,0.892-2.272,0.849-3.28-0.206c-0.902-0.943-0.805-2.42,0.32-3.403
		c0.912-0.797,2.005-1.384,2.963-2.133c0.71-0.555,1.764-1.093,1.079-2.252c-0.625-1.057-1.738-1.048-2.657-0.551
		c-4.693,2.541-8.143,6.18-9.107,11.586c-0.6,3.364,2.353,5.799,5.696,4.775c4.374-1.339,7.851-4.101,10.568-7.705
		c1.796-2.382,3.245-5.024,4.865-7.54c0.298-0.464,0.612-0.944,1.015-1.309c0.927-0.839,2.162-1.111,2.969-0.184
		c0.499,0.573,0.482,1.8,0.326,2.667c-0.111,0.618-0.797,1.166-1.298,1.675c-2.178,2.207-4.412,4.358-6.556,6.597
		c-0.598,0.625-1.062,1.434-1.405,2.237c-0.726,1.699,0.301,3.244,2.148,3.116c1.01-0.07,2.082-0.424,2.963-0.932
		c2.953-1.702,5.571-3.84,7.506-6.687c1.338-1.969,2.548-4.026,3.831-6.033c0.536-0.839,1.026-1.731,1.693-2.455
		c0.814-0.883,1.918-1.261,2.985-0.472c1.149,0.85,0.877,2.025,0.137,2.942c-1.143,1.417-2.47,2.684-3.692,4.039
		c-1.853,2.054-3.706,4.109-5.506,6.208c-0.433,0.505-0.661,1.185-0.984,1.785c0.121,0.11,0.242,0.22,0.363,0.33
		c0.514-0.408,1.098-0.754,1.531-1.234c2.783-3.085,5.471-6.259,8.32-9.281c1.473-1.562,3.163-2.936,4.854-4.269
		c0.713-0.562,1.65-0.958,2.545-1.147c2.239-0.473,3.959,1.287,3.212,3.431c-0.571,1.641-1.517,3.192-2.509,4.637
		c-1.252,1.823-2.738,3.484-4.087,5.243c-0.503,0.656-0.976,1.356-1.337,2.097c-0.691,1.421,0.049,2.596,1.581,2.248
		c1.585-0.36,3.223-0.96,4.552-1.873c2.442-1.678,4.674-3.661,7.118-5.617c-0.088,0.289-0.094,0.549-0.225,0.701
		c-2.941,3.428-6.215,6.501-10.146,8.753c-1.358,0.778-2.944,1.379-4.486,1.566c-2.875,0.348-4.631-2.012-3.502-4.716
		c0.69-1.653,1.769-3.197,2.908-4.598c1.709-2.103,3.676-3.995,5.415-6.075c0.444-0.531,0.443-1.434,0.647-2.167
		c-0.817,0.053-1.916-0.216-2.404,0.212c-2.865,2.508-5.698,5.073-8.323,7.828c-2.327,2.442-4.363,5.161-6.542,7.745
		c-0.353,0.419-0.728,0.983-1.192,1.107c-0.746,0.2-1.728,0.359-2.321,0.023c-0.477-0.27-0.583-1.285-0.737-1.995
		C163.065,218.946,163.284,218.568,163.401,218.107z M90.024,214.151c-0.146,3.145,1.914,4.617,3.948,3.077
		c2.75-2.081,5.237-4.563,7.58-7.108c1.284-1.395,2.175-3.214,2.972-4.965c0.321-0.706,0.215-1.973-0.243-2.556
		c-0.394-0.502-1.562-0.499-2.392-0.517c-0.512-0.011-1.054,0.314-1.545,0.562c-3.856,1.951-6.873,4.829-9.086,8.513
		C90.617,212.227,90.292,213.485,90.024,214.151z"/>
	<path fill="#748E65" d="M246.873,203.919c1.297-1.63,2.527-3.101,3.676-4.632c3.825-5.098,7.618-10.221,11.434-15.326
		c0.396-0.53,0.803-1.08,1.307-1.497c1.02-0.845,2.16-1.201,3.305-0.223c0.919,0.785,0.895,2.35-0.072,3.443
		c-0.622,0.703-1.347,1.315-2.037,1.956c-6.549,6.082-12.861,12.388-17.943,19.788c-1.371,1.997-2.511,4.169-3.596,6.342
		c-0.575,1.15-0.789,2.526,0.316,3.563c1.099,1.031,2.425,0.692,3.592,0.133c3.766-1.805,6.905-4.411,9.299-7.833
		c1.587-2.268,2.958-4.687,4.533-6.964c0.435-0.629,1.199-1.239,1.916-1.403c0.622-0.143,1.593,0.166,2.035,0.631
		c0.369,0.388,0.461,1.424,0.206,1.939c-0.478,0.964-1.226,1.827-1.987,2.61c-1.854,1.905-3.829,3.695-5.655,5.626
		c-0.745,0.788-1.376,1.76-1.803,2.758c-0.74,1.73,0.291,3.242,2.156,3.082c1.112-0.096,2.402-0.422,3.229-1.107
		c2.757-2.283,5.442-4.675,7.956-7.222c1.743-1.765,3.162-3.851,4.716-5.801c0.3-0.376,0.554-0.788,0.963-1.376
		c-1.149,0.088-2.07,0.262-2.967,0.18c-0.418-0.038-0.792-0.572-1.185-0.881c0.382-0.377,0.718-0.995,1.157-1.08
		c0.794-0.154,1.684-0.127,2.472,0.072c1.436,0.362,2.236-0.244,3.009-1.367c2.043-2.966,4.11-5.923,6.325-8.76
		c0.734-0.94,1.87-1.701,2.981-2.157c0.54-0.221,1.737,0.246,2.102,0.772c0.363,0.523,0.266,1.599-0.015,2.271
		c-0.301,0.719-0.998,1.311-1.616,1.851c-2.13,1.857-4.312,3.653-6.448,5.503c-0.56,0.485-1.025,1.08-1.794,1.903
		c1.338-0.069,2.257-0.136,3.176-0.157c0.801-0.018,1.761,0.028,1.609,1.1c-0.055,0.39-1.011,0.902-1.569,0.918
		c-1.091,0.032-2.19-0.347-3.287-0.356c-0.623-0.006-1.499,0.19-1.833,0.625c-2.091,2.72-4.137,5.482-6.033,8.339
		c-0.714,1.076-1.163,2.407-1.43,3.685c-0.442,2.114,1.065,3.57,3.124,2.926c1.554-0.485,3.065-1.304,4.396-2.255
		c1.614-1.152,3.018-2.598,4.511-3.919c0.381-0.337,0.753-0.685,1.129-1.028c0.114,0.109,0.227,0.217,0.341,0.326
		c-0.978,1.157-1.84,2.445-2.959,3.444c-2.551,2.277-5.208,4.438-7.872,6.584c-0.541,0.436-1.281,0.661-1.963,0.877
		c-3.146,0.997-5.166-0.56-4.963-3.86c0.06-0.975,0.34-1.937,0.587-3.277c-0.617,0.573-1.004,0.986-1.443,1.331
		c-2.084,1.638-4.178,3.263-6.28,4.878c-0.259,0.199-0.577,0.336-0.887,0.452c-1.633,0.616-3.39,1.28-4.842-0.114
		c-1.383-1.327-0.711-2.978-0.106-4.501c0.095-0.24,0.161-0.491,0.372-1.14c-1.474,1.26-2.558,2.353-3.805,3.211
		c-1.586,1.093-3.211,2.232-4.984,2.931c-3.364,1.325-5.627-0.719-4.959-4.27c0.088-0.466,0.195-0.928,0.339-1.603
		c-1.481,1.296-2.691,2.524-4.072,3.511c-1.202,0.859-2.53,1.65-3.922,2.114c-3.384,1.128-5.868-0.99-5.513-4.541
		c0.043-0.427,0.124-0.849,0.229-1.548c-1.294,1.073-2.292,2.145-3.503,2.853c-2.276,1.329-4.558,2.85-7.047,3.57
		c-5.073,1.469-8.906-2.286-7.482-7.358c1.84-6.555,6.159-11.015,12.656-13.262c0.157-0.054,0.317-0.112,0.48-0.132
		c1.616-0.203,3.345-0.456,4.457,1.03c1.031,1.379,0.635,2.997-0.029,4.439c-1.72,3.732-4.635,6.181-8.532,7.368
		c-0.704,0.214-1.809-0.044-2.379-0.511c-0.428-0.35-0.621-1.585-0.327-2.062c0.344-0.558,1.3-0.827,2.042-1.036
		c1.691-0.475,3.499-0.632,5.102-1.296c1.861-0.771,3.117-2.299,3.445-4.389c0.333-2.117-1.23-3.558-3.087-2.611
		c-4.815,2.455-8.281,6.173-9.16,11.686c-0.522,3.278,2.236,5.599,5.457,4.728c4.513-1.22,7.874-4.218,10.844-7.643
		c3.004-3.464,6.192-6.668,10.433-8.592c1.101-0.499,2.277-0.906,3.461-1.131C245.03,200.539,246.009,201.166,246.873,203.919z
		 M230.579,214.369c0.039,3.016,1.812,4.234,3.924,3.149c1.211-0.622,2.42-1.441,3.311-2.452c2.118-2.402,4.083-4.942,6.036-7.484
		c0.959-1.249,2.347-2.736,1.059-4.27c-1.257-1.497-3.115-0.746-4.627-0.026c-3.656,1.742-6.459,4.463-8.461,7.958
		C231.175,212.371,230.846,213.68,230.579,214.369z"/>
	<path fill="#748E65" d="M199.215,115.577c2.507,0.395,4.642,0.73,6.899,1.086c-0.219,0.344-0.296,0.514-0.327,0.506
		c-1.833-0.469-2.228,0.602-2.432,2.105c-0.388,2.853-0.9,5.69-1.345,8.536c-0.091,0.585-0.113,1.18-0.216,2.305
		c2.388-0.788,4.429-1.461,6.57-2.166c-0.033,0.34-0.152,1.017-0.145,1.692c0.004,0.441,0.192,0.88,0.297,1.32
		c0.392-0.234,0.908-0.378,1.155-0.717c2.315-3.182,4.559-6.415,6.889-9.584c0.379-0.515,1.041-1.034,1.64-1.131
		c1.257-0.205,2.025,0.285,2.084,1.809c0.149,3.873,0.432,7.742,0.725,11.608c0.058,0.767,0.398,1.513,0.684,2.543
		c-1.958-0.551-3.837-1.079-5.807-1.634c1.038-0.994,1.547-3.638,0.738-4.079c-0.963-0.525-2.182-0.86-3.263-0.797
		c-0.851,0.049-1.476,2.708-1.023,3.614c-4.989-0.892-9.979-1.784-14.986-2.679C198.789,128.103,200.429,117.289,199.215,115.577z
		 M216.795,128.8c0-2.313,0-4.287,0-6.262c-0.107-0.026-0.214-0.052-0.321-0.078c-0.874,1.728-1.749,3.456-2.728,5.39
		C214.863,128.198,215.717,128.464,216.795,128.8z"/>
	<path fill="#748E65" d="M93.2,152.974c0.983-1.126,1.901-2.178,2.85-3.266c0.386,0.96,0.612,1.777,1.02,2.489
		c1.872,3.266,3.737,6.539,5.73,9.731c0.753,1.206,0.311,2.091-0.5,2.741c-0.41,0.329-1.401,0.247-1.977-0.001
		c-2.563-1.105-5.071-2.338-7.851-3.24c1.401,2.358,2.72,4.772,4.239,7.052c0.785,1.179,0.511,1.986-0.236,2.948
		c-0.837,1.078-1.613,0.279-2.345-0.038c-3.302-1.429-6.569-2.938-9.873-4.363c-0.804-0.347-1.698-0.482-2.742-0.767
		c1.269-1.459,2.576-2.962,3.702-4.258c0.657,0.698,1.056,1.366,1.644,1.702c2.58,1.476,5.216,2.857,7.979,4.104
		c-2.338-2.761-3.805-6.26-7.23-8.521c1.05-1.195,2.355-2.679,3.668-4.173c0.319,0.633,0.43,1.313,0.806,1.525
		c2.829,1.593,5.709,3.095,8.828,4.345c-2.032-2.578-4.044-5.172-6.125-7.711C94.58,153.021,93.961,153.104,93.2,152.974z"/>
	<path fill="#748E65" d="M117.352,150.845c-0.135-0.616-0.116-1.328-0.43-1.832c-1.848-2.956-3.749-5.88-5.699-8.77
		c-0.32-0.475-0.97-0.727-1.615-1.187c0.119-0.103,0.398-0.387,0.717-0.615c1.488-1.057,3.007-2.07,4.477-3.152
		c3.221-2.37,6.37-2.193,8.917,0.542c2.961,3.179,3.48,7.522,0.783,10.174c-2.086,2.052-4.687,3.579-7.059,5.339
		C117.412,151.178,117.382,151.012,117.352,150.845z M120.628,148.105c1.842-0.95,2.986-2.281,2.788-4.146
		c-0.334-3.133-1.873-5.687-4.734-7.177c-1.655-0.862-3.38-0.745-5.092,0.522C115.976,140.966,118.287,144.513,120.628,148.105z"/>
	<path fill="#748E65" d="M124.177,129.888c2.11-1.108,4.248-2.393,6.514-3.384c4.494-1.967,8.978,1.228,9.437,6.581
		c0.239,2.792-0.703,5.07-3.107,6.499c-2.218,1.318-4.589,2.378-6.73,3.469c-0.265-1.125-0.351-2.139-0.74-3.018
		c-1.207-2.729-2.497-5.422-3.827-8.094C125.368,131.226,124.754,130.64,124.177,129.888z M128.232,128.887
		c1.856,3.913,3.669,7.735,5.47,11.531c3.416-1.247,4.212-3.944,2.521-7.776C134.491,128.719,131.435,127.195,128.232,128.887z"/>
	<path fill="#748E65" d="M259.167,157.8c-1.125-1.016-2.112-1.907-2.852-2.575c1.058-0.832,2.065-1.502,2.924-2.326
		c2.04-1.955,4.04-3.955,5.987-6.003c0.48-0.505,0.694-1.263,1.13-2.096c0.984,0.914,2.24,1.904,3.242,3.105
		c0.351,0.421,0.188,1.379,0.074,2.061c-0.501,2.994-1.069,5.977-1.258,9.174c1.621-1.965,3.28-3.9,4.824-5.923
		c0.266-0.348,0.038-1.073,0.038-2.01c1.106,1.05,2.023,1.921,2.802,2.661c-0.866,0.503-1.698,0.802-2.285,1.36
		c-2.449,2.33-4.822,4.739-7.227,7.114c-0.385,0.38-0.794,0.737-1.164,1.079c-1.641-0.782-2.055-1.883-1.695-3.571
		c0.773-3.628,1.356-7.296,2.007-10.949c0.044-0.245,0.006-0.503,0.006-1.175c-2.341,2.907-4.476,5.5-6.518,8.165
		C258.942,156.232,259.167,156.945,259.167,157.8z"/>
	<path fill="#748E65" d="M226.136,137.339c-1.22-0.518-2.439-1.037-3.489-1.483c0.651-0.765,1.302-1.286,1.636-1.963
		c1.443-2.932,2.82-5.898,4.152-8.882c0.267-0.599,0.234-1.332,0.353-2.094c2.473,0.001,4.519,1.637,4.98,4.267
		c0.459,2.617,0.893,5.239,1.347,7.857c0.016,0.095,0.123,0.175,0.188,0.261c1.643-2.008,3.052-7.328,2.373-8.782
		c1.147,0.497,2.294,0.994,3.276,1.419c-0.628,0.764-1.299,1.34-1.665,2.069c-1.761,3.507-3.44,7.056-5.126,10.544
		c-1.876-0.093-2.606-1.005-2.828-2.703c-0.473-3.623-1.118-7.223-1.701-10.831c-0.049-0.304-0.153-0.599-0.256-0.988
		C227.492,128.618,225.502,135.895,226.136,137.339z"/>
	<path fill="#748E65" d="M253.518,135.296c0.796,0.476,1.849,1.106,2.723,1.628c-0.804,0.826-1.646,1.49-2.234,2.331
		c-1.841,2.631-3.557,5.35-5.394,7.983c-0.339,0.486-1.353,1.136-1.481,1.028c-0.649-0.546-1.519-1.291-1.565-2.015
		c-0.242-3.753-0.254-7.521-0.352-11.283c-0.012-0.478-0.059-0.955-0.45-1.579c-0.338,0.643-0.678,1.284-1.013,1.929
		c-1.046,2.015-2.144,4.005-3.104,6.06c-0.349,0.747-0.366,1.649-0.581,2.714c-0.847-0.527-1.992-1.239-2.986-1.857
		c0.746-0.684,1.459-1.134,1.894-1.774c1.806-2.655,3.558-5.349,5.257-8.073c0.373-0.598,0.449-1.38,0.737-2.323
		c1.132,0.695,2.559,1.466,3.842,2.428c0.356,0.267,0.387,1.104,0.393,1.681c0.036,3.123,0.017,6.247,0.38,9.418
		C250.967,140.852,253.341,138.633,253.518,135.296z"/>
	<path fill="#748E65" d="M147.409,120.168c1.734-0.436,3.246-0.911,4.794-1.145c0.441-0.067,1.052,0.5,1.477,0.893
		c2.343,2.167,4.652,4.371,7.108,6.688c-0.404-3.889-2.19-8.132-3.6-8.832c1.176-0.31,2.351-0.62,3.46-0.913
		c0,1.137-0.145,2.173,0.027,3.153c0.555,3.162,1.26,6.298,1.824,9.459c0.109,0.609,0.067,1.599-0.301,1.866
		c-0.822,0.595-1.804,0.618-2.693-0.256c-2.683-2.643-5.425-5.226-8.148-7.828c-0.347-0.331-0.717-0.638-1.391-0.797
		c0.684,2.13,1.37,4.259,2.052,6.39c0.27,0.844,0.452,1.727,0.822,2.524c0.304,0.654,0.828,1.205,1.41,2.018
		c-0.996,0.253-2.25,0.571-3.667,0.93C151.529,132.364,149.123,121.378,147.409,120.168z"/>
	<path fill="#748E65" d="M176.68,117.322c-0.687,0.751-1.373,1.502-2.153,2.355c-1.147-1.378-2.162-2.596-3.333-4.002
		c-0.596,0.629-1.179,1.065-1.527,1.643c-1.69,2.809-1.626,5.698-0.073,8.522c0.376,0.684,1.061,1.361,1.765,1.66
		c0.803,0.341,1.787,0.256,2.693,0.356c0.037-0.737,0.182-1.488,0.086-2.206c-0.133-0.992-0.447-1.961-0.749-3.211
		c1.236-0.163,2.863-0.377,4.695-0.619c-1.448,2.566,0.218,5.023-0.315,7.737c-1.606-1.216-2.841-0.288-4.244,0.375
		c-2.729,1.29-6.019,0.219-7.529-2.381c-1.79-3.083-1.731-6.311,0.023-9.339c1.419-2.449,3.968-3.169,6.608-2.973
		c1.384,0.103,2.715,0.907,4.07,1.394C176.691,116.862,176.685,117.092,176.68,117.322z"/>
	<path fill="#748E65" d="M281.593,171.223c-3.154-0.091-4.145,2.878-6.715,3.704c0.107-2.008-1.495-2.467-2.789-3.328
		c-2.4-1.598-3.219-4.738-2.109-7.365c2.335-5.529,9.687-6.941,13.284-2.456c0.812,1.012,1.292,2.441,1.502,3.746
		c0.284,1.764-0.195,2.045-1.961,1.649c-0.372-0.083-0.737-0.202-1.404-0.387c0.37-1.198,0.664-2.342,1.079-3.441
		c0.437-1.155,0.031-1.584-1.113-1.768c-3.273-0.525-7.69,2.487-8.314,5.755c-0.28,1.465,0.156,2.712,1.216,3.739
		c2.281-1.044,3.64-2.47,3.597-4.284C279.235,168.417,280.342,169.734,281.593,171.223z"/>
	<path fill="#748E65" d="M190.327,129.472c-2.107-0.096-4.214-0.191-6.482-0.294c1.365-1.79,1.933-12.73,0.608-14.552
		c3.287,0.221,6.299,0.244,9.246,0.691c1.706,0.259,2.649,1.773,2.836,3.511c0.195,1.816-0.531,3.363-2.163,4.143
		c-1.263,0.604-2.716,0.978-4.113,1.084c-1.376,0.104-1.901,0.615-1.825,1.91c0.003,0.055,0.001,0.111-0.007,0.166
		c-0.219,1.542-0.252,2.959,2.159,2.752C190.5,129.08,190.414,129.276,190.327,129.472z M188.612,123.17
		c2.696,0.042,4.119-1.298,4.089-3.54c-0.031-2.286-1.542-3.897-3.704-3.761C188.872,118.247,188.745,120.644,188.612,123.17z"/>
	<path fill="#748E65" d="M214.988,294.192c1.745,0.977,3.611,1.793,5.191,2.988c1.072,0.81,0.51,2.071-0.512,2.609
		c-1.5,0.789-3.102,1.594-4.747,1.864c-6.277,1.03-12.574,1.978-18.893,2.701c-4.723,0.541-9.489,0.901-14.24,0.963
		c-6.575,0.086-12.969-1.417-19.322-2.956c-1.286-0.311-3.123-0.7-2.919-2.357c0.097-0.787,1.767-1.496,2.833-2.018
		c1.286-0.63,2.674-1.064,4.044-1.502c0.697-0.223,1.451-0.269,2.223-0.153c-2.731,1.119-5.462,2.238-8.193,3.357
		c-0.006,0.239-0.012,0.478-0.018,0.717c1.083,0.411,2.138,0.937,3.255,1.216c10.711,2.684,21.509,3.285,32.451,1.519
		c5.35-0.864,10.77-1.292,16.134-2.083c2.005-0.295,3.957-1.011,5.899-1.641c0.515-0.167,0.902-0.731,1.347-1.112
		c-0.398-0.416-0.731-0.938-1.205-1.229c-1.225-0.75-2.513-1.398-3.775-2.087C214.69,294.723,214.839,294.458,214.988,294.192z"/>
	<path fill="#748E65" d="M184.094,265.265c0.764-0.108,1.185-0.167,1.632-0.231c-0.954-2.247-0.805-2.596,1.257-3.644
		c0.515-0.262,0.933-0.716,1.342-1.04c0.468,0.439,1.291,0.933,1.683,1.66c0.377,0.699,0.308,1.64,0.461,2.648
		c0.36-0.043,0.873-0.105,1.359-0.164c0.165-2.455,0.926-3.504,2.634-3.585c1.919-0.091,1.972,1.36,1.993,2.875
		c1.468,0,2.828-0.03,4.186,0.009c1.192,0.035,1.832,0.754,1.919,1.893c0.301,3.968,0.57,7.938,0.827,11.908
		c0.034,0.519-0.074,1.048-0.153,2.032c-0.38-0.609-0.6-0.804-0.62-1.017c-0.353-3.797-0.75-7.592-0.988-11.396
		c-0.131-2.086-0.277-2.379-2.423-2.377c-0.716,0.001-1.458,0-2.145,0.173c-5.478,1.383-11.099,0.466-16.749,0.952
		c0.268-0.237,0.537-0.473,0.883-0.778c-0.93-1.072-1.571-2.367-0.195-3.403c0.651-0.49,2.016-0.723,2.676-0.366
		C185.141,262.207,184.972,263.667,184.094,265.265z"/>
	<path fill="#748E65" d="M106.603,141.211c0.961,1.148,1.755,2.097,2.367,2.827c-2.113,0.366-4.183,0.725-6.711,1.163
		c1.575,1.859,2.777,3.278,4.084,4.822c1.099-0.85,2.108-1.631,3.118-2.412c0.116,0.13,0.232,0.26,0.348,0.39
		c-0.896,0.856-1.793,1.712-2.854,2.725c1.341,1.58,2.647,3.12,4.339,5.113c0.944-2.421,1.732-4.44,2.571-6.592
		c0.65,0.749,1.482,1.707,2.456,2.829c-2.863,2.393-5.584,4.667-8.163,6.822c-0.406-0.922-0.586-1.74-1.055-2.324
		c-1.978-2.462-4.013-4.881-6.097-7.254c-0.538-0.612-1.33-1.001-2.148-1.597C101.255,145.707,103.816,143.554,106.603,141.211z"/>
	<path fill="#748E65" d="M193.906,290.788c0.437,0.939,0.815,1.912,1.328,2.807c0.492,0.861,1.068,1.837,2.308,1.443
		c1.213-0.385,0.968-1.358,0.842-2.345c-0.077-0.602,0.231-1.253,0.366-1.882c0.277,0.003,0.553,0.006,0.83,0.009
		c0.137,1.095,0.273,2.191,0.463,3.712c0.705-1.401,1.283-2.551,2.038-4.049c0.447,1.071,0.568,2.032,1.109,2.454
		c0.476,0.372,1.422,0.141,2.152,0.176c-0.759,1.704-1.685,1.762-2.982,0.454c-1.515,0.788-2.884,1.548-4.295,2.222
		c-2.239,1.069-2.91-1.063-4.075-2.162c-2.529,4.208-3.513,4.534-5.855,2.003c-3.608,2.835-4.168,2.847-5.623,0.124
		c-0.752,0.431-1.476,1.132-2.264,1.214c-0.733,0.076-1.534-0.507-2.572-0.902c-0.39,0.301-1.039,0.888-1.77,1.345
		c-1.437,0.898-2.617,0.391-2.683-1.252c-0.058-1.439,0.197-2.891,0.61-4.298c0,1.308-0.093,2.624,0.025,3.921
		c0.128,1.409,0.725,1.645,1.84,0.763c1.213-0.96,2.475-1.938,2.375-3.759c-0.011-0.209,0.044-0.49,0.18-0.626
		c0.413-0.413,0.88-0.772,1.327-1.151c0.065,0.553,0.255,1.127,0.162,1.652c-0.113,0.637-0.603,1.217-0.67,1.849
		c-0.049,0.461,0.206,1.108,0.553,1.398c0.198,0.165,1.042-0.081,1.271-0.386c0.789-1.049,1.456-2.193,2.127-3.326
		c0.316-0.533,0.534-1.124,0.797-1.689c0.188,0.046,0.376,0.093,0.563,0.139c-0.108,0.627-0.171,1.265-0.332,1.877
		c-0.366,1.392-1.086,3.204,0.318,3.951c1.392,0.74,2.346-1.008,3.201-2.04c0.445-0.537,0.646-1.269,1-1.89
		c0.276-0.484,0.617-0.932,0.929-1.396c0.188,0.076,0.375,0.153,0.563,0.229c-0.183,0.603-0.324,1.222-0.558,1.804
		c-0.416,1.037-0.753,2.198,0.431,2.779c1.211,0.594,1.994-0.39,2.404-1.408c0.483-1.2,0.778-2.475,1.154-3.718
		C193.629,290.819,193.768,290.804,193.906,290.788z"/>
	<path fill="#748E65" d="M250.472,150.845c0.786-0.564,1.449-0.853,1.844-1.354c2.084-2.647,4.124-5.33,6.119-8.045
		c0.38-0.517,0.489-1.233,0.832-2.149c1.236,0.926,2.666,1.998,3.919,2.937c-0.773,0.601-1.54,0.997-2.031,1.613
		c-1.994,2.506-3.932,5.06-5.824,7.645c-0.429,0.586-0.59,1.369-0.977,2.312C253.116,152.86,251.719,151.796,250.472,150.845z"/>
	<path fill="#748E65" d="M144.299,121.237c-0.883,1.93,2.958,12.66,4.903,13.634c-1.865,0.684-3.454,1.267-5.153,1.89
		c0.518-2.276-3.397-12.783-5.236-13.556C140.735,122.516,142.384,121.924,144.299,121.237z"/>
	<path fill="#748E65" d="M208.867,294.712c-0.175-2.18-0.373-4.359-0.52-6.541c-0.374-5.558-1.328-6.434-6.822-6.727
		c-2.417-0.129-4.809-0.761-7.226-0.873c-3.584-0.166-7.18-0.115-10.77-0.076c-2.101,0.023-4.205,0.149-6.299,0.332
		c-1.2,0.105-2.42,0.296-3.563,0.662c-1.667,0.533-2.615,1.614-2.587,3.566c0.042,2.931-0.151,5.866-0.254,8.799
		c-0.009,0.251-0.088,0.5-0.378,0.733c0-3.69-0.035-7.381,0.041-11.069c0.011-0.511,0.461-1.149,0.895-1.493
		c1.775-1.407,3.761-2.252,6.105-2.258c2.321-0.005,4.649-0.127,6.96-0.339c4.216-0.387,8.368-0.417,12.535,0.655
		c2.113,0.543,4.383,0.51,6.587,0.662c3.223,0.222,4.65,1.36,5.178,4.528c0.4,2.399,0.632,4.829,0.873,7.251
		c0.072,0.72-0.081,1.463-0.132,2.195C209.282,294.717,209.074,294.715,208.867,294.712z"/>
	<path fill="#748E65" d="M176.801,277.137c0.205,0.323,0.34,0.761,0.633,0.941c0.404,0.249,1.206,0.552,1.349,0.393
		c0.424-0.472,0.726-1.135,0.855-1.769c0.147-0.721-0.015-1.502,0.109-2.231c0.042-0.246,0.547-0.413,0.84-0.616
		c0.17,0.309,0.444,0.603,0.488,0.929c0.08,0.592,0.023,1.202,0.023,1.878c1.959-0.162,1.375-2.307,2.85-3.071
		c-0.084,0.615-0.243,1.231-0.228,1.843c0.013,0.544,0.217,1.084,0.337,1.626c0.537-0.185,1.196-0.238,1.581-0.59
		c0.463-0.424,0.694-1.102,1.026-1.67c0.257-0.44,0.513-0.881,0.77-1.321c0.162,0.047,0.324,0.094,0.486,0.141
		c-0.189,1.073-0.378,2.145-0.611,3.465c2.655-0.417,3.284-2.532,4.285-4.238c0.175,0.099,0.349,0.198,0.524,0.298
		c-0.119,0.502-0.316,1.001-0.337,1.507c-0.026,0.597,0.1,1.201,0.16,1.802c0.562-0.067,1.239,0.038,1.658-0.243
		c0.613-0.41,1.067-1.077,1.541-1.673c0.327-0.41,0.574-0.885,0.856-1.33c0.199,0.07,0.397,0.141,0.596,0.211
		c-0.154,0.502-0.363,0.995-0.446,1.508c-0.089,0.55-0.058,1.119-0.079,1.679c0.509-0.107,1.096-0.09,1.511-0.348
		c0.746-0.463,1.375-1.112,2.083-1.642c0.336-0.252,0.932-0.67,1.077-0.562c0.377,0.278,0.568,0.807,0.665,0.963
		c-1.022,0.594-1.913,0.984-2.653,1.566c-1.762,1.386-2.49,1.455-4.016,0.152c-2.273,1.103-2.488,1.092-4.193-0.239
		c-1.235,0.585-2.3,2.102-3.98,0.847c-0.147-0.11-0.646,0.342-1.005,0.408c-0.619,0.114-1.471,0.418-1.848,0.136
		c-1.591-1.188-2.654-0.244-3.861,0.617c-0.51,0.364-1.349,0.793-1.789,0.606c-0.711-0.302-1.215-1.09-1.807-1.672
		C176.433,277.337,176.617,277.237,176.801,277.137z"/>
	<path fill="#748E65" d="M165.741,197.235c0.023-2.501,2.163-4.867,4.364-4.826c1.461,0.027,2.508,1.182,2.498,2.756
		c-0.016,2.408-2.244,4.804-4.442,4.776C166.564,199.92,165.724,198.982,165.741,197.235z"/>
	<path fill="#748E65" d="M271.138,195.181c-0.029,2.461-2.195,4.789-4.432,4.762c-1.542-0.018-2.468-1.056-2.436-2.731
		c0.047-2.429,2.303-4.877,4.427-4.803C270.218,192.463,271.157,193.529,271.138,195.181z"/>
	<path fill="#748E65" d="M187.164,305.983c0.217,0.72,0.609,1.437,0.621,2.16c0.045,2.763-0.582,5.401-2.027,7.772
		c-1.824,2.993-5.842,4.487-8.963,3.43c-3.225-1.092-4.746-4.571-3.205-7.331c0.869-1.556,1.98-1.863,3.661-1.051
		c-0.795,0.208-1.828,0.2-2.406,0.708c-0.589,0.517-0.922,1.518-1.029,2.35c-0.232,1.799,1.509,3.804,3.508,4.275
		c2.566,0.604,5.951-0.701,7.232-2.996c1.421-2.545,2.281-5.273,1.87-8.266c-0.04-0.29,0.071-0.6,0.112-0.9
		C186.746,306.083,186.955,306.033,187.164,305.983z"/>
	<path fill="#748E65" d="M171.625,298.517c12.496,0.977,24.729-0.614,37.171-2.144C206.279,299.098,175.466,300.776,171.625,298.517
		z"/>
	<path fill="#748E65" d="M192.698,306.257c0,2.293-0.186,4.605,0.048,6.873c0.281,2.73,1.401,3.611,4.12,3.823
		c2.045,0.16,3.95-0.252,5.674-1.424c2.091-1.422,2.139-1.891,0.157-3.278c0.815-0.92,1.744-0.573,2.236,0.076
		c0.389,0.513,0.577,1.638,0.272,2.136c-1.28,2.091-3.311,3.243-5.72,3.549c-5.848,0.744-8.295-1.582-7.864-7.491
		c0.106-1.452,0.545-2.88,0.831-4.319C192.535,306.222,192.617,306.239,192.698,306.257z"/>
	<path fill="#748E65" d="M195.146,318.852c-0.473,0.4-0.883,0.993-1.428,1.168c-3.824,1.232-7.69,1.407-11.582,0.126
		c4.283-0.135,8.623,0.18,12.644-1.874C194.902,318.466,195.024,318.659,195.146,318.852z"/>
	<path fill="#748E65" d="M175.081,278.72c0-3.456-0.142-6.92,0.047-10.366c0.138-2.511,1.749-3.276,3.707-1.849
		c-0.446,0.032-0.758,0.132-1.023,0.059c-1.075-0.298-1.6,0.255-1.776,1.182c-0.255,1.344-0.522,2.704-0.578,4.065
		c-0.094,2.294-0.026,4.595-0.026,6.893C175.316,278.709,175.198,278.714,175.081,278.72z"/>
	<path fill="#748E65" d="M181.63,253.768c1.554,1.225,2.081,4.841,0.849,6.797C182.187,258.227,181.905,255.963,181.63,253.768z"/>
	<path fill="#748E65" d="M193.706,255.083c0.331,1.871,0.709,3.809-0.533,5.584C193.351,258.805,193.528,256.944,193.706,255.083z"
		/>
</g>
</svg>
